<?xml version="1.0" standalone="no"?>
<!DOCTYPE svg PUBLIC "-//W3C//DTD SVG 20010904//EN"
 "http://www.w3.org/TR/2001/REC-SVG-20010904/DTD/svg10.dtd">
<svg version="1.0" xmlns="http://www.w3.org/2000/svg"
 width="384.000000pt" height="384.000000pt" viewBox="0 0 384.000000 384.000000"
 preserveAspectRatio="xMidYMid meet">
<metadata>
Created by potrace 1.11, written by Peter Selinger 2001-2013
</metadata>
<g transform="translate(0.000000,384.000000) scale(0.100000,-0.100000)"
fill="#000000" stroke="none">
<path d="M0 1920 l0 -1920 1920 0 1920 0 0 1920 0 1920 -1920 0 -1920 0 0
-1920z m1430 1275 c225 -51 358 -189 421 -435 17 -68 22 -126 26 -292 l5 -208
-169 0 -170 0 -7 201 c-9 272 -24 336 -97 407 -46 45 -95 57 -230 57 -111 0
-118 -2 -165 -30 -26 -17 -63 -50 -81 -73 -69 -91 -73 -137 -73 -939 0 -767 2
-804 57 -913 51 -100 133 -140 286 -140 121 0 180 27 236 110 44 65 59 150 67
392 l7 208 170 0 170 0 -6 -212 c-6 -231 -18 -307 -68 -436 -68 -177 -181
-275 -379 -329 -92 -25 -328 -24 -425 1 -139 37 -251 106 -322 200 -54 72 -66
95 -98 184 -59 163 -58 151 -62 872 -5 693 -1 776 38 929 82 321 315 479 689
466 58 -2 139 -11 180 -20z m1170 -1185 l0 -1180 335 0 335 0 0 -130 0 -130
-520 0 -520 0 0 1310 0 1310 185 0 185 0 0 -1180z"/>
</g>
</svg>
